<?xml version="1.0" standalone="no"?>
<!DOCTYPE svg PUBLIC "-//W3C//DTD SVG 20010904//EN"
 "http://www.w3.org/TR/2001/REC-SVG-20010904/DTD/svg10.dtd">
<svg version="1.0" xmlns="http://www.w3.org/2000/svg"
 width="512.000000pt" height="512.000000pt" viewBox="0 0 512.000000 512.000000"
 preserveAspectRatio="xMidYMid meet">
<metadata>
Created by potrace 1.11, written by Peter Selinger 2001-2013
</metadata>
<g transform="translate(0.000000,512.000000) scale(0.100000,-0.100000)"
fill="#000000" stroke="none">
<path d="M1120 5113 c-177 -16 -411 -103 -575 -217 -258 -178 -457 -475 -511
-766 -2 -14 -7 -32 -10 -40 -4 -8 -9 -35 -12 -60 -8 -60 -9 -2895 -1 -2940 6
-30 35 -155 44 -185 1 -5 6 -25 10 -43 4 -18 12 -35 16 -38 5 -3 9 -12 9 -19
0 -20 47 -119 93 -194 49 -81 109 -161 167 -222 60 -63 200 -179 217 -179 7 0
13 -4 13 -8 0 -19 261 -140 340 -157 38 -8 108 -25 135 -31 44 -11 2908 -14
2983 -3 93 13 111 17 182 37 276 80 516 254 686 497 59 85 127 225 158 325 54
178 53 158 52 1720 -1 795 -5 1456 -9 1470 -4 14 -11 50 -16 80 -12 73 -15 84
-45 165 -43 114 -120 251 -193 343 -57 71 -178 186 -241 229 -31 21 -59 41
-62 45 -3 3 -49 29 -103 56 -88 46 -183 83 -248 98 -30 7 -105 23 -144 31 -30
6 -2868 11 -2935 6z"/>
</g>
</svg>
